<svg viewBox="0 0 64 64" width="64" height="64" xmlns="http://www.w3.org/2000/svg" fill="none">
  <defs>
    <linearGradient id="grad" x1="0" y1="0" x2="1" y2="1">
      <stop offset="0%" stop-color="#6366F1"/>
      <stop offset="100%" stop-color="#8B5CF6"/>
    </linearGradient>
  </defs>

  <!-- Brain outline -->
  <path
    d="M22 12c-6 0-10 5-10 10 0 6 4 8 4 10s-4 4-4 10 4 10 10 10 6-2 8-2 2 2 8 2 10-5 10-10-4-8-4-10 4-4 4-10-4-10-10-10-6 2-8 2-2-2-8-2z"
    fill="url(#grad)"
    stroke="#4B4B4B"
    stroke-width="2"
  />

  <!-- AI Spark (star) -->
  <path
    d="M32 8 L34 14 L40 14 L35 18 L37 24 L32 20 L27 24 L29 18 L24 14 L30 14 Z"
    fill="#FACC15"
    stroke="#EAB308"
    stroke-width="1"
  />
</svg>
